<?xml version="1.0" encoding="UTF-8"?>
<svg width="32px" height="27px" viewBox="0 0 32 27" version="1.1" xmlns="http://www.w3.org/2000/svg" xmlns:xlink="http://www.w3.org/1999/xlink">
    <defs></defs>
    <g id="Campus+-Web" stroke="none" stroke-width="1" fill="none" fill-rule="evenodd" stroke-linecap="round" stroke-linejoin="round">
        <g id="Desktop-HD" transform="translate(-1240.000000, -21.000000)" stroke="#FFFFFF" stroke-width="2">
            <g id="Nav" transform="translate(150.000000, 0.000000)">
                <g id="Burger/Menu/icon" transform="translate(1091.000000, 22.000000)">
                    <path d="M30,10.9090909 C29.9277273,3.30136364 24.5454545,0 15,0 C5.45454545,0 0.0722727273,3.30136364 0,10.9090909 L30,10.9090909 Z" id="Stroke-1"></path>
                    <path d="M17.2584545,19.0909091 L0.000272727273,19.0909091 C0.000272727273,19.0909091 0.000272727273,24.5454545 4.09118182,24.5454545 L25.9093636,24.5454545 C30.0002727,24.5454545 30.0002727,19.0909091 30.0002727,19.0909091 L22.4143636,19.0909091" id="Stroke-3"></path>
                    <path d="M0,15 L6.81818182,15 C8.625,15 9.15409091,15.8004545 9.68727273,16.4495455 C10.7386364,17.7272727 12.7840909,18.21 13.9772727,17.3004545 C15.4159091,16.2054545 16.1086364,15.8236364 17.3577273,18.2959091 C18.5031818,20.565 20.7109091,21.3068182 22.0731818,18.9490909 C23.5090909,16.4672727 24.045,15 25.9090909,15 L30,15" id="Stroke-5"></path>
                </g>
            </g>
        </g>
    </g>
</svg>